<svg xmlns="http://www.w3.org/2000/svg" width="64" height="64" viewBox="0 0 13.80127 13.103516">
        <defs id="defs1">
            <clipPath clipPathUnits="userSpaceOnUse" id="clipPath1175">
            <path d="M 0,269.291 H 807.874 V 0 H 0 Z" transform="translate(-762.81719,-142.47551)" id="path1175" />
            </clipPath>
            <clipPath clipPathUnits="userSpaceOnUse" id="clipPath1207">
            <path d="M 0,269.291 H 807.874 V 0 H 0 Z" transform="translate(-762.62894,-142.9443)" id="path1207" />
            </clipPath>
            <clipPath clipPathUnits="userSpaceOnUse" id="clipPath1215">
            <path d="M 0,269.291 H 807.874 V 0 H 0 Z" transform="translate(-763.31932,-143.0798)" id="path1215" />
            </clipPath>
        </defs>
        <g id="g2770" transform="translate(-2107.8634,-164.92837)">
            <path
            id="path1174"
            clip-path="url(#clipPath1175)"
            style="fill: #4a4331; fill-opacity: .55; fill-rule: nonzero; stroke: none"
            d="m -0.23512032,2.6504727 c -0.042125,0 -0.0833301,-0.0036 -0.12304688,-0.011719 -0.0758524,-0.015514 -0.14527171,-0.045616 -0.20800781,-0.086426 -0.007098,-0.00459 -0.0136183,-0.00977 -0.0205078,-0.014648 -0.0279915,-0.019883 -0.0548887,-0.041705 -0.0791016,-0.065918 -0.0275937,-0.027594 -0.0527871,-0.056904 -0.074707,-0.089355 -0.0219199,-0.032451 -0.0402344,-0.067512 -0.0556641,-0.1040039 -0.0154297,-0.036492 -0.0284981,-0.074541 -0.0366211,-0.1142578 -0.008123,-0.039717 -0.0117188,-0.080922 -0.0117188,-0.1230469 0,-0.042125 0.003596,-0.08333 0.0117188,-0.1230469 0.008123,-0.039717 0.0211914,-0.077766 0.0366211,-0.1142578 0.0154297,-0.036492 0.0337441,-0.071553 0.0556641,-0.1040039 0.0217181,-0.032152 0.0474154,-0.061968 0.074707,-0.089356 0.024424,-0.02451 0.0508164,-0.045827 0.0791016,-0.065918 0.003698,-0.00262 0.006496,-0.00625 0.0102539,-0.00879 3.2115e-4,-2.178e-4 0.001143,2.172e-4 0.001465,0 0.002893,-0.00194 0.005861,-0.00396 0.008789,-0.00586 0.0627361,-0.04081 0.13215545,-0.070912 0.20800781,-0.086426 0.0397168,-0.00812 0.0809219,-0.011719 0.12304688,-0.011719 0.068,0 0.13428907,0.011227 0.19628907,0.032227 0,0 -0.01159961,-0.1051953 -0.03076172,-0.2915039 -0.0146695,-0.1408169 -0.02796204,-0.27859328 -0.04980469,-0.52441405 -0.001362,-0.0153285 -0.003019,-0.0355939 -0.004395,-0.0512695 -0.012389,-0.1397448 -0.0236722,-0.2643939 -0.0366211,-0.43066408 -0.00216,-0.0277001 -0.003703,-0.0493005 -0.005859,-0.07763672 -0.52807108,0.27262816 -2.24500194,1.07222305 -3.61523444,0.70019533 -0.861,-0.234 -1.4014844,-1.80631648 0.2285156,-2.04931648 -0.4408548,-0.1040644 -0.8365647,-2.8737469 3.2783204,-1.2275391 -0.004343,-0.8713152 0.0302409,-1.7555924 0.14355469,-2.5092774 0.0126219,-0.083952 0.0264367,-0.165655 0.04101563,-0.2460938 0.0036318,-0.020166 0.006495,-0.040129 0.0102539,-0.060059 0.01356557,-0.071497 0.02870013,-0.1412175 0.04394532,-0.2094726 0.0032889,-0.014798 0.0068838,-0.029309 0.0102539,-0.043945 0.01621308,-0.07009 0.03314979,-0.1388804 0.05126954,-0.2050782 0.0047444,-0.0174 0.0097684,-0.034153 0.01464843,-0.05127 0.01581829,-0.055282 0.03107812,-0.1104068 0.04833985,-0.1625977 0.01496442,-0.045349 0.03224513,-0.087501 0.04833984,-0.1303711 0.0109968,-0.029266 0.0206933,-0.059831 0.0322266,-0.087891 0.007265,-0.017679 0.015955,-0.034084 0.0234375,-0.05127 0.0228718,-0.052522 0.0453714,-0.103163 0.0703125,-0.1508789 0.003404,-0.00652 0.00681,-0.012621 0.0102539,-0.019043 0.0265909,-0.049586 0.0545107,-0.096773 0.0834961,-0.140625 7.6518e-4,-0.00116 0.002163,-0.00178 0.00293,-0.00293 0.00417,-0.00627 0.007498,-0.0129 0.0117188,-0.019043 0.0322717,-0.047014 0.065791,-0.090789 0.10107422,-0.1303711 0.0353103,0.039582 0.0687784,0.083356 0.10107422,0.1303711 0.004256,0.0062 0.007514,0.012723 0.0117188,0.019043 7.1813e-4,0.00108 0.002213,0.00185 0.00293,0.00293 0.029007,0.043854 0.0568859,0.091037 0.0834961,0.140625 0.003416,0.00637 0.006876,0.012585 0.0102539,0.019043 0.0296273,0.056643 0.0582424,0.1168 0.0849609,0.1801758 0.0202204,0.047962 0.0385123,0.099317 0.0571289,0.1508789 0.0106723,0.029594 0.0220704,0.058634 0.0322266,0.089355 0.011944,0.036089 0.0224418,0.073746 0.0336914,0.1113282 0.0143046,0.047829 0.0292744,0.096359 0.0424805,0.1464844 0.007581,0.028756 0.0147427,0.058416 0.0219727,0.087891 0.0132784,0.054182 0.025968,0.1090401 0.0380859,0.1655273 0.0105936,0.049275 0.0195556,0.099968 0.0292969,0.1508789 0.00501,0.026175 0.00986,0.052516 0.014648,0.079102 0.011886,0.065995 0.024588,0.1323162 0.035156,0.2006836 0.00433,0.027991 0.00761,0.056599 0.011719,0.084961 0.011437,0.078873 0.022392,0.1587204 0.032227,0.2402344 0.011824,0.098002 0.022591,0.1975397 0.032227,0.2988282 0.019322,0.2031106 0.034037,0.4112029 0.04541,0.6240234 0.022232,0.4160107 0.029576,0.8447847 0.027832,1.2714844 -3.6e-5,0.00881 4.44e-5,0.017558 0,0.026367 4.1208065,-1.6462078 3.7254618,1.1234747 3.2827149,1.2275391 1.632,0.243 1.0919805,1.81531648 0.2299805,2.04931648 C 3.3606763,1.1609684 1.6384479,0.36048831 1.1110711,0.08846092 c -0.015098,0.19822633 -0.028026,0.35005778 -0.04248,0.51269533 -0.00157,0.0176113 -0.00285,0.0297328 -0.00439,0.046875 C 1.0422641,0.89506216 1.0290681,1.0328238 1.0143961,1.1739102 0.9952086,1.3602461 0.9836344,1.4654141 0.9836344,1.4654141 c 0.062,-0.022 0.1287539,-0.033691 0.1977539,-0.033691 0.042125,0 0.08333,0.0036 0.1230469,0.011719 0.079434,0.016246 0.1533594,0.048445 0.2182617,0.092285 0.064902,0.04384 0.1202227,0.09916 0.1640625,0.1640625 0.04384,0.064902 0.076039,0.1388281 0.092285,0.2182617 0.00812,0.039717 0.011719,0.080922 0.011719,0.1230469 0,0.042125 -0.0036,0.08333 -0.011719,0.1230469 -0.016246,0.079434 -0.048445,0.1533593 -0.092285,0.2182617 -0.022122,0.03275 -0.04681,0.061557 -0.074707,0.089355 -0.027388,0.027292 -0.057203,0.052989 -0.089355,0.074707 -0.064902,0.04384 -0.1388281,0.076039 -0.2182617,0.092285 -0.039717,0.00812 -0.080922,0.011719 -0.1230469,0.011719 -0.042,0 -0.083426,-0.0036 -0.1230469,-0.011719 -0.0792421,-0.016246 -0.15199216,-0.048445 -0.21679685,-0.092285 -0.0324023,-0.02192 -0.0632578,-0.047113 -0.0908203,-0.074707 -0.0275625,-0.027594 -0.0528047,-0.056904 -0.074707,-0.089355 -0.0219023,-0.032451 -0.0402422,-0.067512 -0.0556641,-0.1040039 -0.0127004,-0.030052 -0.0214988,-0.061462 -0.0292969,-0.09375 -0.003197,-0.013158 -0.006462,-0.026072 -0.008789,-0.039551 -0.005802,-0.033804 -0.0102539,-0.068539 -0.0102539,-0.1040039 l -0.0996094,-0.09375 -0.0981445,0.092285 v 0.00146 c 0,0.042125 -0.003623,0.08333 -0.0117188,0.1230469 -0.0161914,0.079434 -0.0485625,0.1533593 -0.0922852,0.2182617 -0.0220626,0.03275 -0.0468734,0.061557 -0.074707,0.089355 -0.0273257,0.027292 -0.0572612,0.052989 -0.0893555,0.074707 -0.06478515,0.04384 -0.13888281,0.076039 -0.21826172,0.092285 -0.0396895,0.00812 -0.0809219,0.011719 -0.12304688,0.011719 z"
            transform="matrix(1.3333333,0,0,-1.3333333,2114.2549,169.08733)"
            />
            <path
            id="path1206"
            clip-path="url(#clipPath1207)"
            style="display: inline; fill: #e7ded0; fill-opacity: 1; fill-rule: nonzero; stroke: none"
            d="m -0.23437032,2.6504277 c -0.337,0 -0.61083986,-0.272375 -0.61083986,-0.609375 0,-0.337 0.27383986,-0.609375 0.61083986,-0.609375 0.069,0 0.13428907,0.011227 0.19628907,0.032226 0,0 -0.06524499,-0.55802201 -0.12744141,-1.37548828 -0.41995755,0.21773154 -1.63455614,0.79118374 -2.82128914,0.79687502 -0.2706056,0.001298 -0.5393164,-0.0271484 -0.7954102,-0.0966797 -0.861,-0.234 -1.4004843,-1.80631644 0.2285157,-2.04931644 -0.4407582,-0.1040416 -0.8337439,-2.8700071 3.27832036,-1.2260743 -0.00877,-1.7410746 0.14248855,-3.5434363 0.74707033,-4.2216797 0.60504581,0.6782443 0.75740301,2.4803727 0.74853521,4.2216797 4.1188841,-1.6446979 3.725397,1.1220251 3.2827149,1.2260743 1.632,0.243 1.0919805,1.81531644 0.2299805,2.04931644 C 3.3504728,1.1634966 1.62453,0.35488064 1.1103563,0.08841592 1.0480468,0.90646782 0.98291487,1.4653691 0.98291487,1.4653691 c 0.062,-0.022 0.12875393,-0.033691 0.19775393,-0.033691 0.337,0 0.6108398,0.272375 0.6108398,0.609375 0,0.337 -0.2738398,0.609375 -0.6108398,0.609375 -0.33600002,0 -0.60791019,-0.272375 -0.60791019,-0.609375 l -0.10107422,-0.09375 -0.0966797,0.092285 v 0.00146 c 0,0.337 -0.27237502,0.609375 -0.60937502,0.609375 z"
            transform="matrix(1.3333333,0,0,-1.3333333,2114.0039,168.46227)"
            />
            <path
            id="path1214"
            clip-path="url(#clipPath1215)"
            style="fill: #73d0ce; fill-opacity: 1; fill-rule: nonzero; stroke: none"
            d="M -0.94818284,2.1911947 C -1.100304,2.1834778 -1.2206438,2.0581166 -1.2206438,1.9040853 c 0,-0.159 0.1295742,-0.2885742 0.28857425,-0.2885742 0.159,0 0.28710938,0.1295742 0.28710938,0.2885742 0,0.159 -0.12810938,0.2871094 -0.28710938,0.2871094 -0.004969,0 -0.0112062,2.49e-4 -0.0161133,0 z m 1.44580082,0 C 0.34549679,2.1834778 0.22369219,2.0581166 0.22369219,1.9040853 c 0,-0.159 0.12957423,-0.2885742 0.28857423,-0.2885742 0.159,0 0.28857423,0.1295742 0.28857423,0.2885742 0,0.159 -0.12957423,0.2871094 -0.28857423,0.2871094 -0.004969,0 -0.009741,2.49e-4 -0.0146484,0 z M -0.18353438,0.42312828 c -0.0647644,-0.006519 -0.11572266,-0.0618164 -0.11572266,-0.12744141 v -0.0410156 h -0.0351563 c -0.07,0 -0.12597657,-0.0559766 -0.12597657,-0.12597657 0,-0.071 0.0559766,-0.12890624876 0.12597657,-0.12890624876 h 0.0351563 V -0.04122721 c 0,-0.071 0.0579063,-0.1274414 0.12890625,-0.1274414 0.07,0 0.12597657,0.0564414 0.12597657,0.1274414 v 0.0410156312 h 0.0439453137 c 0.0719999963,0 0.1299062563,0.0598359388 0.1289062563,0.1318359388 -0.002,0.069 -0.05990626,0.12304688 -0.1289062563,0.12304688 H -0.04437422 v 0.0410156 c 0,0.07 -0.05597657,0.12744141 -0.12597657,0.12744141 -0.004438,0 -0.008866,4.3457e-4 -0.0131836,3e-8 z m 0,-1.02978519 c -0.0647644,-0.006519 -0.11572266,-0.0618164 -0.11572266,-0.12744141 v -0.0410156 h -0.0351563 c -0.07,0 -0.12597657,-0.0574414 -0.12597657,-0.12744141 0,-0.071 0.0559766,-0.12744147 0.12597657,-0.12744147 h 0.0351563 v -0.041016 c 0,-0.071 0.0579063,-0.1274414 0.12890625,-0.1274414 0.07,0 0.12597657,0.056441 0.12597657,0.1274414 v 0.041016 h 0.0439453137 c 0.0719999963,0 0.1299062563,0.0583711 0.1289062563,0.13037116 -0.002,0.069 -0.05990626,0.12451172 -0.1289062563,0.12451172 H -0.04437422 v 0.0410156 c 0,0.07 -0.05597657,0.12744141 -0.12597657,0.12744141 -0.004438,0 -0.008866,4.3457e-4 -0.0131836,0 z m 0.005859,-1.02978519 c -0.0678929,-0.00341 -0.12158204,-0.059629 -0.12158204,-0.1274414 v -0.041016 h -0.0351563 c -0.07,0 -0.12597657,-0.057441 -0.12597657,-0.1274414 0,-0.071 0.0559766,-0.1274414 0.12597657,-0.1274414 h 0.0351563 v -0.041016 c 0,-0.071 0.0579063,-0.1274414 0.12890625,-0.1274414 0.07,0 0.12597657,0.056441 0.12597657,0.1274414 v 0.041016 h 0.0439453137 c 0.0719999963,0 0.1299062563,0.058371 0.1289062563,0.1303711 -0.002,0.069 -0.05990626,0.1245117 -0.1289062563,0.1245117 H -0.04437422 v 0.041016 c 0,0.07 -0.05597657,0.1274414 -0.12597657,0.1274414 -0.002219,0 -0.005134,1.1e-4 -0.007325,0 z m 0,-1.0297852 c -0.0678929,-0.00341 -0.12158204,-0.059629 -0.12158204,-0.1274414 v -0.041016 h -0.0351563 c -0.07,0 -0.12597657,-0.057441 -0.12597657,-0.1274414 0,-0.071 0.0559766,-0.1274414 0.12597657,-0.1274414 h 0.0351563 v -0.041016 c 0,-0.071 0.0579063,-0.1274414 0.12890625,-0.1274414 0.07,0 0.12597657,0.056441 0.12597657,0.1274414 v 0.041016 h 0.0439453137 c 0.0719999963,0 0.1299062563,0.058371 0.1289062563,0.1303711 -0.002,0.069 -0.05990626,0.1245117 -0.1289062563,0.1245117 H -0.04437422 v 0.041016 c 0,0.07 -0.05597657,0.1274414 -0.12597657,0.1274414 -0.002219,0 -0.005134,1.1e-4 -0.007325,0 z m 0,-1.0297852 c -0.0678929,-0.00341 -0.12158204,-0.059629 -0.12158204,-0.1274414 v -0.041016 h -0.0351563 c -0.07,0 -0.12597657,-0.057441 -0.12597657,-0.1274414 0,-0.071 0.0559766,-0.1274414 0.12597657,-0.1274414 h 0.0351563 v -0.041016 c 0,-0.071 0.0579063,-0.1274414 0.12890625,-0.1274414 0.07,0 0.12597657,0.056441 0.12597657,0.1274414 v 0.041016 h 0.0439453137 c 0.0719999963,0 0.1299062563,0.058371 0.1289062563,0.1303711 -0.002,0.069 -0.05990626,0.1245117 -0.1289062563,0.1245117 H -0.04437422 v 0.041016 c 0,0.07 -0.05597657,0.1274414 -0.12597657,0.1274414 -0.002219,0 -0.005134,1.1e-4 -0.007325,0 z"
            transform="matrix(1.3333333,0,0,-1.3333333,2114.9244,168.2816)"
            />
        </g>
        </svg>
