<svg xmlns="http://www.w3.org/2000/svg" width="64" height="64" viewBox="0 0 13.800293 14.174255">
        <defs id="defs1">
            <clipPath clipPathUnits="userSpaceOnUse" id="clipPath1071">
            <path d="M 0,269.291 H 807.874 V 0 H 0 Z" transform="translate(-766.88639,-92.452702)" id="path1071" />
            </clipPath>
            <clipPath clipPathUnits="userSpaceOnUse" id="clipPath1087">
            <path d="M 0,269.291 H 807.874 V 0 H 0 Z" transform="translate(-766.69814,-92.9214)" id="path1087" />
            </clipPath>
            <clipPath clipPathUnits="userSpaceOnUse" id="clipPath1089">
            <path d="M 0,269.291 H 807.874 V 0 H 0 Z" transform="translate(-759.99119,-93.4005)" id="path1089" />
            </clipPath>
            <clipPath clipPathUnits="userSpaceOnUse" id="clipPath1093">
            <path d="M 0,269.291 H 807.874 V 0 H 0 Z" transform="translate(-764.29934,-96.971302)" id="path1093" />
            </clipPath>
        </defs>
        <g id="g2777" transform="translate(-2107.8643,-223.59415)">
            <path id="path1070" d="m 0,0 c -1.984,-1.984 -5.202,-1.984 -7.186,0 -1.984,1.984 -1.984,5.202 0,7.186 C -5.202,9.17 -1.984,9.17 0,7.186 1.984,5.202 1.984,1.984 0,0" style="fill: #4a4331; fill-opacity: .55; fill-rule: nonzero; stroke: none" transform="matrix(1.3333333,0,0,-1.3333333,2119.6805,235.7844)" clip-path="url(#clipPath1071)" />
            <path id="path1086" d="m 0,0 c -1.984,-1.984 -5.202,-1.984 -7.186,0 -1.984,1.984 -1.984,5.202 0,7.186 C -5.202,9.17 -1.984,9.17 0,7.186 1.984,5.202 1.984,1.984 0,0" style="fill: #2e582e; fill-opacity: 1; fill-rule: nonzero; stroke: none" transform="matrix(1.3333333,0,0,-1.3333333,2119.4295,235.15947)" clip-path="url(#clipPath1087)" />
            <path id="path1088" clip-path="url(#clipPath1089)" style="fill: #e7ded0; fill-opacity: 1; fill-rule: nonzero; stroke: none" d="M -0.31244063,5.8802629 C -1.7114406,4.1512629 -1.6084289,1.60838 -4.2890626e-4,3.7998376e-4 0.73157109,-0.73162002 1.6588524,-1.1513857 2.6128524,-1.2593857 L 2.879454,4.7274309 c 0,0 -2.18089463,0.384832 -3.19189463,1.152832 z m 6.85253923,0 c -1.01,-0.768 -3.1918946,-1.152832 -3.1918946,-1.152832 l 0.2666016,-5.9882814 c 0.955,0.109 1.8812813,0.52823048 2.6132813,1.26123048376 C 7.8360869,1.60838 7.9390986,4.1502629 6.5400986,5.8802629 Z" transform="matrix(1.3333333,0,0,-1.3333333,2110.4869,234.52067)" />
            <path
            id="path1092"
            clip-path="url(#clipPath1093)"
            style="display: inline; fill: #2e582e; fill-opacity: 1; fill-rule: nonzero; stroke: none"
            d="M 2.5439602,0.76697985 C 2.2384631,0.76020449 1.8965383,0.60002671 1.6709133,0.37440171 c -0.444,-0.444 -0.444,-1.16293363 0,-1.60693361 0.414,-0.414 1.2281837,-0.5794961 1.5131837,-0.083496 0.311,0.53999998 0.2617421,1.35202737 -0.1142579,1.85302737 C 2.9439016,0.70396812 2.7529846,0.77161562 2.5439602,0.76697985 Z m -3.722168,-0.18603516 c -0.439125,0 -0.8791993,-0.19454299 -1.1791993,-0.58154298751 -0.41,-0.52700000249 -0.41,-1.28354690249 0,-1.81054690249 0.6,-0.774 1.75593366,-0.774 2.35693366249,0 0.40899999751,0.527 0.40899999751,1.2835469 0,1.81054690249 C -0.30097344,0.3864017 -0.73908284,0.58094469 -1.1782078,0.58094469 Z m -3.7207033,-0.0761719 c -0.2497509,0.004354 -0.4871992,-0.0809883 -0.6166992,-0.27392579 -0.359,-0.534 -0.3462383,-1.3871563 0.030762,-1.9101563 0.301,-0.419 0.903668,-0.3238711 1.284668,0.057129 0.444,0.444 0.4391875,1.17193755 0.1171875,1.71093755 -0.154125,0.2570625 -0.4948096,0.41041701 -0.8159183,0.41601554 z m 1.1513673,-3.22851569 c -0.5182528,-0.00251 -0.9755235,-0.288457 -0.8466798,-0.7426758 0.12,-0.421 1.248547,-1.5081055 1.810547,-1.3081055 0.611,0.217 0.4081132,1.1301172 0.016113,1.6201172 -0.242125,0.3018438 -0.6253865,0.4323788 -0.9799802,0.4306641 z m 4.9819337,-0.010254 c -0.24171737,-0.00211 -0.51411333,-0.081844 -0.80126958,-0.28125 -0.515,-0.358 -0.73483594,-1.5212891 -0.13183594,-1.6962891 0.70100002,-0.203 1.74207032,0.7675235 1.87207032,1.1865235 0.091281,0.2954062 -0.3212427,0.7964006 -0.9389648,0.7910156 z"
            transform="matrix(1.3333333,0,0,-1.3333333,2116.2311,229.7596)"
            />
        </g>
        </svg>
