<svg xmlns="http://www.w3.org/2000/svg" width="64" height="64" viewBox="0 0 13.855469 13.876953">
        <defs id="defs1">
            <clipPath clipPathUnits="userSpaceOnUse" id="clipPath1103">
            <path d="M 0,269.291 H 807.874 V 0 H 0 Z" transform="translate(-759.36014,-130.6155)" id="path1103" />
            </clipPath>
            <clipPath clipPathUnits="userSpaceOnUse" id="clipPath1133">
            <path d="M 0,269.291 H 807.874 V 0 H 0 Z" transform="translate(-759.17189,-131.0843)" id="path1133" />
            </clipPath>
            <clipPath clipPathUnits="userSpaceOnUse" id="clipPath1143">
            <path d="M 0,269.291 H 807.874 V 0 H 0 Z" transform="translate(-767.47529,-129.23861)" id="path1143" />
            </clipPath>
        </defs>
        <g id="g2772" transform="translate(-2107.8359,-184.27602)">
            <path
            id="path1102"
            clip-path="url(#clipPath1103)"
            style="fill: #4a4331; fill-opacity: .55; fill-rule: nonzero; stroke: none"
            d="M -7.2656252e-4,-2.6454751e-4 C -0.63472656,-2.6454751e-4 -1.1476992,-0.51470206 -1.1476992,-1.1487021 c 0,0 -0.046,-0.9996133 0,-1.3286133 0.20107572,-1.4383175 1.0939465,-2.5187965 2.4418945,-2.5986329 -1.20351123,-0.085619 -1.81715971,-0.7877645 -2.11523438,-2.3173828 -0.061,-0.313 -0.16965235,-0.925336 -0.11865235,-1.444336 0.06,-0.605 0.49356253,-1.1015625 1.10156253,-1.1015625 1.6710462,0 3.0876805,1.0873293 3.5830079,2.5927735 0.049003,-0.074508 0.1153914,-0.1259766 0.2021484,-0.1259766 0.074375,0 0.1342676,0.043225 0.1816407,0.1083984 0.5002204,-1.4962469 1.9112074,-2.5751953 3.5756837,-2.5751953 0.608,0 1.0415625,0.4965625 1.1015625,1.1015625 0.051,0.519 -0.057652,1.131336 -0.1186524,1.444336 -0.2979525,1.5289914 -0.9112343,2.2312936 -2.1137695,2.3173828 1.347948,0.079836 2.2393539,1.1603154 2.4404297,2.5986329 0.046,0.329 0,1.3286133 0,1.3286133 0,0.63400004 -0.5129727,1.14843755249 -1.1469727,1.14843755249 -1.7094086,0 -3.1638663,-1.09128695249 -3.7060548,-2.61474615249 -0.051155,0.1118042 -0.1225885,0.1962891 -0.2270508,0.1962891 -0.1013315,0 -0.1718623,-0.099058 -0.2197265,-0.225586 -0.5340264,1.538478 -1.9946933,2.64404305249 -3.71484386252,2.64404305249 z"
            transform="matrix(1.3333333,0,0,-1.3333333,2109.6455,184.90067)"
            />
            <path
            id="path1132"
            clip-path="url(#clipPath1133)"
            style="display: inline; fill: #2e582e; fill-opacity: 1; fill-rule: nonzero; stroke: none"
            d="M 2.3437501e-5,-3.1704751e-4 C -0.63397656,-3.1704751e-4 -1.1484141,-0.51328973 -1.1484141,-1.1472897 c 0,0 -0.046,-1.0010782 0,-1.3300782 0.20107583,-1.4383175 1.09394651,-2.5187965 2.4418946,-2.5986329 -1.20264283,-0.086037 -1.81726845,-0.7883223 -2.11523443,-2.3173828 -0.061,-0.313 -0.1681875,-0.925336 -0.1171875,-1.444336 0.06,-0.605 0.49209768,-1.1015625 1.10009768,-1.1015625 1.67133595,0 3.08939825,1.0884412 3.58447275,2.5942383 0.049054,-0.074906 0.113642,-0.1274414 0.2006836,-0.1274414 0.074375,0 0.1342676,0.043225 0.1816406,0.1083984 0.5007262,-1.4959162 1.9128641,-2.5751953 3.5771486,-2.5751953 0.608,0 1.0400976,0.4965625 1.1000976,1.1015625 0.051,0.519 -0.056188,1.131336 -0.1171875,1.444336 -0.2979659,1.5290605 -0.9125916,2.2313455 -2.1152344,2.3173828 1.3479481,0.079836 2.2408188,1.1603154 2.4418946,2.5986329 0.046,0.329 0,1.3300782 0,1.3300782 0,0.63399997 -0.5144375,1.14697265249 -1.1484375,1.14697265249 -1.7088423,0 -3.1620045,-1.09064145249 -3.70459,-2.61328135249 -0.05113,0.1111937 -0.1244307,0.1948243 -0.2285156,0.1948243 -0.1005249,0 -0.1704277,-0.097584 -0.2182617,-0.2226563 C 3.1802429,-1.104119 1.7193598,-3.1704751e-4 2.3437501e-5,-3.1704751e-4 Z"
            transform="matrix(1.3333333,0,0,-1.3333333,2109.3945,184.2756)"
            />
            <path
            id="path1142"
            clip-path="url(#clipPath1143)"
            style="fill: #e7ded0; fill-opacity: 1; fill-rule: nonzero; stroke: none"
            d="m -7.7848221,0.94157188 c -0.52,0 -0.9418945,-0.42189455 -0.9418945,-0.94189455251 0,-0.51999999749 0.4218945,-0.94189455749 0.9418945,-0.94189455749 0.521,0 0.9433594,0.42189456 0.9433594,0.94189455749 0,0.52000000251 -0.4223594,0.94189455251 -0.9433594,0.94189455251 z m 6.84228536,0 c -0.52099996,0 -0.94189456,-0.42189455 -0.94189456,-0.94189455251 0,-0.51999999749 0.4208946,-0.94189455749 0.94189456,-0.94189455749 0.52,0 0.94189455248,0.42189456 0.94189455248,0.94189455749 C -6.4218752e-4,0.51967733 -0.42253674,0.94157188 -0.94253674,0.94157188 Z M -6.4855056,-0.9012016 c -0.3243317,-0.0163921 -0.5830079,-0.2838985 -0.5830079,-0.6123047 0,-0.339 0.2762344,-0.6137696 0.6152344,-0.6137696 0.338,0 0.6123047,0.2747696 0.6123047,0.6137696 0,0.339 -0.2743047,0.6123047 -0.6123047,0.6123047 -0.010594,0 -0.021764,5.2878e-4 -0.032227,0 z m 4.182129,0 c -0.3234225,-0.0163921 -0.581543,-0.2838985 -0.581543,-0.6123047 0,-0.339 0.2743047,-0.6137696 0.6123047,-0.6137696 0.339,0 0.6137695,0.2747696 0.6137695,0.6137696 0,0.339 -0.2747695,0.6123047 -0.6137695,0.6123047 -0.010562,0 -0.020329,5.2878e-4 -0.030762,0 z M -5.487947,-2.6209282 c -0.2295748,-0.011606 -0.4116211,-0.2010938 -0.4116211,-0.4335938 0,-0.24 0.1950586,-0.4350586 0.4350586,-0.4350586 0.239,0 0.4335937,0.1950586 0.4335937,0.4350586 0,0.24 -0.1945937,0.4335938 -0.4335937,0.4335938 -0.0075,0 -0.016032,3.744e-4 -0.023437,0 z m 2.2045899,0 c -0.2287243,-0.011606 -0.4116211,-0.2010938 -0.4116211,-0.4335938 0,-0.24 0.1945937,-0.4350586 0.4335937,-0.4350586 0.24,0 0.4350586,0.1950586 0.4350586,0.4350586 0,0.24 -0.1950586,0.4335938 -0.4350586,0.4335938 -0.00747,0 -0.014594,3.744e-4 -0.021973,0 z m -2.9384766,-1.2861329 c -0.3243317,-0.016392 -0.581543,-0.2838984 -0.581543,-0.6123047 0,-0.339 0.2747695,-0.6137695 0.6137695,-0.6137695 0.338,0 0.6123047,0.2747695 0.6123047,0.6137695 0,0.339 -0.2743047,0.6123047 -0.6123047,0.6123047 -0.010594,0 -0.021764,5.288e-4 -0.032227,0 z m 3.6533204,0 c -0.3234225,-0.016392 -0.581543,-0.2838984 -0.581543,-0.6123047 0,-0.339 0.2757695,-0.6137695 0.6137695,-0.6137695 0.339,0 0.6137696,0.2747695 0.6137696,0.6137695 0,0.339 -0.2747696,0.6123047 -0.6137696,0.6123047 -0.010562,0 -0.021794,5.288e-4 -0.032227,0 z m -4.9350588,-1.284668 c -0.52,0 -0.9418945,-0.4218945 -0.9418945,-0.9418945 0,-0.52 0.4218945,-0.9433594 0.9418945,-0.9433594 0.521,0 0.9418946,0.4233594 0.9418946,0.9433594 0,0.52 -0.4208946,0.9418945 -0.9418946,0.9418945 z m 6.2812502,0 c -0.521,0 -0.9418946,-0.4218945 -0.9418946,-0.9418945 0,-0.52 0.4208946,-0.9433594 0.9418946,-0.9433594 0.51999999,0 0.94189455,0.4233594 0.94189455,0.9433594 0,0.52 -0.42189456,0.9418945 -0.94189455,0.9418945 z"
            transform="matrix(1.3333333,0,0,-1.3333333,2120.4657,186.73653)"
            />
        </g>
        </svg>
