<svg xmlns="http://www.w3.org/2000/svg" width="64" height="64" viewBox="0 0 13.801025 14.277329">
        <defs id="defs1">
            <clipPath clipPathUnits="userSpaceOnUse" id="clipPath1163">
            <path d="M 0,269.291 H 807.874 V 0 H 0 Z" transform="translate(-766.81019,-107.67851)" id="path1163" />
            </clipPath>
            <clipPath clipPathUnits="userSpaceOnUse" id="clipPath1169">
            <path d="M 0,269.291 H 807.874 V 0 H 0 Z" transform="translate(-766.62194,-108.1472)" id="path1169" />
            </clipPath>
            <clipPath clipPathUnits="userSpaceOnUse" id="clipPath1173">
            <path d="M 0,269.291 H 807.874 V 0 H 0 Z" transform="translate(-766.24619,-113.8058)" id="path1173" />
            </clipPath>
        </defs>
        <g id="g2776" transform="translate(-2107.8636,-203.80866)">
            <path id="path1162" d="m 0,0 c 0,0 1.445,0.789 1.56,0.432 0.116,-0.358 -2.181,-2.983 -6.016,-2.258 -3.052,0.576 -4.611,3.597 -4.018,7.042 0.572,3.318 2.428,3.31 2.431,2.86 C -6.038,7.444 -5.234,8.033 -4.982,7.754 -4.729,7.475 -4.952,7.038 -5.129,6.685 -5.306,6.331 -4.401,0.346 0,0" style="display: inline; fill: #4a4331; fill-opacity: .55; fill-rule: nonzero; stroke: none" transform="matrix(1.3333333,0,0,-1.3333333,2119.5789,215.48333)" clip-path="url(#clipPath1163)" />
            <path
            id="path1168"
            clip-path="url(#clipPath1169)"
            style="display: inline; fill: #e7ded0; fill-opacity: 1; fill-rule: nonzero; stroke: none"
            d="m -6.415847,8.2868808 c -0.5729666,-0.019229 -1.6469806,-0.6855001 -2.0581056,-3.0703126 -0.593,-3.445 0.9660666,-6.4669689 4.0180666,-7.0429689 3.83499995,-0.725 6.1321134,1.90078913 6.0161134,2.25878913 C 1.4452274,0.78938843 1.6875e-4,2.5951501e-4 1.6875e-4,2.5951501e-4 1.6661688,1.6662595 1.6661688,4.3679511 1.6875e-4,6.0339511 -1.3823994,7.417349 -3.4780136,7.6512317 -5.103347,6.7385409 c 0.1714169,0.3429707 0.3621755,0.7498183 0.121582,1.0151368 -0.252,0.279 -1.0555469,-0.3097344 -1.0605469,0.3222656 -8.437e-4,0.1265625 -0.1493308,0.2184621 -0.3735351,0.2109375 z"
            transform="matrix(1.3333333,0,0,-1.3333333,2119.3279,214.8584)"
            />
            <path
            id="path1172"
            d="m 0,0 c -0.706,0.706 -1.644,1.094 -2.641,1.094 -0.998,0 -1.936,-0.388 -2.642,-1.094 -0.705,-0.706 -1.094,-1.644 -1.094,-2.641 0,-0.998 0.389,-1.936 1.094,-2.642 0.706,-0.705 1.644,-1.094 2.642,-1.094 2.006,0 2.407,1.922 2.407,2.79 0,1.604 -1.102,3.237 -2.908,2.908 -0.841,-0.153 -1.64,-1.086 -1.64,-2.273 0,-1.188 0.96,-1.795 1.64,-1.795 0.904,0 1.234,0.813 1.234,1.196 0,0.696 -0.374,1.151 -1.176,1.145 -0.133,-10e-4 -0.297,-0.013 -0.297,0.12 0,0.133 0.107,0.266 0.404,0.3 0.943,0.109 1.553,-0.62 1.553,-1.582 0,-0.589 -0.481,-1.66 -1.718,-1.66 -0.918,0 -2.121,0.823 -2.121,2.276 0,1.453 0.977,2.589 2.121,2.754 2.218,0.321 3.39,-1.52 3.39,-3.389 0,-0.614 -0.198,-1.341 -0.32,-1.57 C -0.143,-5.291 -0.109,-5.392 0,-5.283 0.706,-4.577 1.094,-3.639 1.094,-2.641 1.094,-1.644 0.706,-0.706 0,0"
            style="display: inline; fill: #73d0ce; fill-opacity: 1; fill-rule: nonzero; stroke: none"
            transform="matrix(1.3333333,0,0,-1.3333333,2118.8269,207.3136)"
            clip-path="url(#clipPath1173)"
            />
        </g>
        </svg>
