<svg xmlns="http://www.w3.org/2000/svg" width="316" height="316" viewBox="0 0 316 316">
<svg x="0" y="0" id="svg11" width="158" height="158" viewBox="0 0 39.577393 39.602799">
                  <defs id="defs1">
                    <clipPath clipPathUnits="userSpaceOnUse" id="clipPath815">
                      <path d="M 0,269.291 H 807.874 V 0 H 0 Z" transform="translate(-685.48792,-130.8309)" id="path815" />
                    </clipPath>
                    <clipPath clipPathUnits="userSpaceOnUse" id="clipPath875">
                      <path d="M 0,269.291 H 807.874 V 0 H 0 Z" transform="translate(-685.25684,-131.06201)" id="path875" />
                    </clipPath>
                    <clipPath clipPathUnits="userSpaceOnUse" id="clipPath877">
                      <path d="M 0,269.291 H 807.874 V 0 H 0 Z" transform="translate(-688.60994,-136.8438)" id="path877" />
                    </clipPath>
                  </defs>
                  <g id="g2773" transform="translate(-1991.2064,-161.87867)">
                    <path
                      id="path814"
                      d="M 0,0 C -0.102,1.168 -1.08,2.085 -2.275,2.085 -1.08,2.085 -0.102,3.001 0,4.169 0.102,3.001 1.08,2.085 2.275,2.085 1.08,2.085 0.102,1.168 0,0 m 14.726,8.773 v 5.763 c 0,1.262 -1.023,2.284 -2.285,2.284 H 6.679 C 3.106,16.82 0.188,14.02 0,10.494 -0.188,14.02 -3.106,16.82 -6.679,16.82 h -5.762 c -1.262,0 -2.285,-1.022 -2.285,-2.284 V 8.773 c 0,-3.694 2.995,-6.688 6.689,-6.688 -3.694,0 -6.689,-2.995 -6.689,-6.689 v -5.763 c 0,-1.261 1.023,-2.284 2.285,-2.284 h 5.762 c 3.573,0 6.491,2.8 6.679,6.326 0.188,-3.526 3.106,-6.326 6.679,-6.326 h 5.762 c 1.262,0 2.285,1.023 2.285,2.284 v 5.763 c 0,3.694 -2.995,6.689 -6.689,6.689 3.694,0 6.689,2.994 6.689,6.688"
                      style="fill: #4a4331; fill-opacity: 1; fill-rule: nonzero; stroke: none"
                      transform="matrix(1.3333333,0,0,-1.3333333,2011.1492,184.61347)"
                      clip-path="url(#clipPath815)"
                    />
                    <path
                      id="path874"
                      d="M 0,0 C -0.102,1.168 -1.08,2.085 -2.275,2.085 -1.08,2.085 -0.102,3.001 0,4.169 0.102,3.001 1.08,2.085 2.275,2.085 1.08,2.085 0.102,1.168 0,0 m 14.726,8.773 v 5.763 c 0,1.262 -1.023,2.284 -2.285,2.284 H 6.679 C 3.106,16.82 0.188,14.02 0,10.494 -0.188,14.02 -3.106,16.82 -6.679,16.82 h -5.762 c -1.262,0 -2.285,-1.022 -2.285,-2.284 V 8.773 c 0,-3.694 2.995,-6.688 6.689,-6.688 -3.694,0 -6.689,-2.995 -6.689,-6.689 v -5.763 c 0,-1.261 1.023,-2.284 2.285,-2.284 h 5.762 c 3.573,0 6.491,2.8 6.679,6.326 0.188,-3.526 3.106,-6.326 6.679,-6.326 h 5.762 c 1.262,0 2.285,1.023 2.285,2.284 v 5.763 c 0,3.694 -2.995,6.689 -6.689,6.689 3.694,0 6.689,2.994 6.689,6.688"
                      style="display: inline; fill: #f14d30; fill-opacity: 1; fill-rule: nonzero; stroke: none"
                      transform="matrix(1.3333333,0,0,-1.3333333,2010.8411,184.30533)"
                      clip-path="url(#clipPath875)"
                    />
                    <path
                      id="path876"
                      clip-path="url(#clipPath877)"
                      style="fill: #73d0ce; fill-opacity: 1; fill-rule: nonzero; stroke: none"
                      d="m -1.3545305,1.3534667 c -0.748,0 -1.3549805,-0.60551562 -1.3549805,-1.353515622501 0,-0.747999997499 0.6069805,-1.353515677499 1.3549805,-1.353515677499 0.748,0 1.35498050001,0.60551568 1.35498050001,1.353515677499 C 4.5000001e-4,0.74795108 -0.6065305,1.3534667 -1.3545305,1.3534667 Z m -5.1987306,-1.64941407 c -0.748,0 -1.3549805,-0.60551566 -1.3549805,-1.35351563 0,-0.748 0.6069805,-1.3535157 1.3549805,-1.3535157 0.748,0 1.3549805,0.6055157 1.3549805,1.3535157 0,0.74799997 -0.6069805,1.35351563 -1.3549805,1.35351563 z m 6.38378922,-3.93750013 c -0.748,0 -1.35498052,-0.6055156 -1.35498052,-1.3535156 0,-0.748 0.60698052,-1.3535157 1.35498052,-1.3535157 0.748,0 1.35498048,0.6055157 1.35498048,1.3535157 0,0.748 -0.60698048,1.3535156 -1.35498048,1.3535156 z M -5.7900775,-4.8560061 c -0.748,0 -1.3549805,-0.6055156 -1.3549805,-1.3535156 0,-0.748 0.6069805,-1.3535157 1.3549805,-1.3535157 0.748,0 1.3549805,0.6055157 1.3549805,1.3535157 0,0.748 -0.6069805,1.3535156 -1.3549805,1.3535156 z"
                      transform="matrix(1.3333333,0,0,-1.3333333,2015.3119,176.59627)"
                    />
                  </g>
                </svg>
<svg x="158" y="0" id="svg12" width="158" height="158" viewBox="0 0 39.590698 39.619064">
                  <defs id="defs1">
                    <clipPath clipPathUnits="userSpaceOnUse" id="clipPath797">
                      <path
                        d="m 720.119,147.657 c -2.784,0 -5.058,-2.175 -5.22,-4.918 v 0 c -0.162,2.743 -2.436,4.918 -5.22,4.918 v 0 h -7.225 c -1.263,0 -2.286,-1.024 -2.286,-2.285 v 0 -7.226 c 0,-2.889 2.341,-5.23 5.23,-5.23 v 0 c -2.889,0 -5.23,-2.342 -5.23,-5.23 v 0 -7.226 c 0,-1.262 1.023,-2.286 2.286,-2.286 v 0 h 7.225 c 2.784,0 5.058,2.175 5.22,4.917 v 0 c 0.162,-2.742 2.436,-4.917 5.22,-4.917 v 0 h 7.226 c 1.262,0 2.285,1.024 2.285,2.286 v 0 7.226 c 0,2.888 -2.341,5.23 -5.23,5.23 v 0 c 2.889,0 5.23,2.341 5.23,5.23 v 0 7.226 c 0,1.261 -1.023,2.285 -2.285,2.285 v 0 z m -7.495,-14.741 c 1.194,0 2.173,0.917 2.275,2.085 v 0 c 0.101,-1.168 1.081,-2.085 2.275,-2.085 v 0 c -1.194,0 -2.174,-0.917 -2.275,-2.086 v 0 c -0.102,1.169 -1.081,2.086 -2.275,2.086"
                        transform="translate(-720.11894,-117.19181)"
                        id="path797"
                      />
                    </clipPath>
                    <clipPath clipPathUnits="userSpaceOnUse" id="clipPath857">
                      <path d="M 0,269.291 H 807.874 V 0 H 0 Z" transform="translate(-714.66802,-131.0613)" id="path857" />
                    </clipPath>
                    <clipPath clipPathUnits="userSpaceOnUse" id="clipPath859">
                      <path d="M 0,269.291 H 807.874 V 0 H 0 Z" transform="translate(-716.40344,-134.6753)" id="path859" />
                    </clipPath>
                  </defs>
                  <g id="g2774" transform="translate(-2030.4147,-161.87028)">
                    <path id="path796" d="M 0,0 C -2.178,0 -4.11,1.129 -5.22,2.845 -6.33,1.129 -8.262,0 -10.44,0 h -7.225 c -1.803,0 -3.269,1.466 -3.269,3.268 v 7.226 c 0,2.193 1.143,4.124 2.863,5.23 -1.72,1.106 -2.863,3.037 -2.863,5.23 v 7.225 c 0,1.802 1.466,3.269 3.269,3.269 h 7.225 c 2.178,0 4.11,-1.129 5.22,-2.846 1.11,1.717 3.042,2.846 5.22,2.846 h 7.226 c 1.802,0 3.268,-1.467 3.268,-3.269 v -7.225 c 0,-2.193 -1.142,-4.124 -2.863,-5.23 1.721,-1.106 2.863,-3.037 2.863,-5.23 V 3.268 C 10.494,1.466 9.028,0 7.226,0 Z" style="display: inline; fill: #4a4331; fill-opacity: 1; fill-rule: nonzero; stroke: none" transform="matrix(1.3333333,0,0,-1.3333333,2057.3239,202.79893)" clip-path="url(#clipPath797)" />
                    <path
                      id="path856"
                      d="M 0,0 C -0.102,1.168 -1.081,2.085 -2.275,2.085 -1.081,2.085 -0.102,3.002 0,4.171 0.102,3.002 1.081,2.085 2.275,2.085 1.081,2.085 0.102,1.168 0,0 m 14.731,7.315 v 7.226 c 0,1.262 -1.023,2.286 -2.285,2.286 H 5.22 c -2.784,0 -5.058,-2.175 -5.22,-4.918 -0.162,2.743 -2.436,4.918 -5.22,4.918 h -7.226 c -1.262,0 -2.285,-1.024 -2.285,-2.286 V 7.315 c 0,-2.888 2.341,-5.23 5.23,-5.23 -2.889,0 -5.23,-2.341 -5.23,-5.23 v -7.225 c 0,-1.263 1.023,-2.286 2.285,-2.286 h 7.226 c 2.784,0 5.058,2.175 5.22,4.917 0.162,-2.742 2.436,-4.917 5.22,-4.917 h 7.226 c 1.262,0 2.285,1.023 2.285,2.286 v 7.225 c 0,2.889 -2.341,5.23 -5.23,5.23 2.889,0 5.23,2.342 5.23,5.23"
                      style="display: inline; fill: #73d0ce; fill-opacity: 1; fill-rule: nonzero; stroke: none"
                      transform="matrix(1.3333333,0,0,-1.3333333,2050.056,184.30627)"
                      clip-path="url(#clipPath857)"
                    />
                    <path
                      id="path858"
                      clip-path="url(#clipPath859)"
                      style="fill: #f14d30; fill-opacity: 1; fill-rule: nonzero; stroke: none"
                      d="m -5.4732259,3.0927651 c -0.060026,-0.00134 -0.1197071,-0.010801 -0.1801758,-0.027832 -0.388,-0.108 -0.6143711,-0.5109492 -0.5053711,-0.8979492 0.109,-0.387 0.5099492,-0.6129063 0.8979492,-0.5039063 0.170439,0.047564 0.3097123,0.153139 0.4028321,0.2885743 0.8747731,-0.512133 1.2051872,-1.7634304 1.2084961,-1.77832041 0.029,-0.112 0.142418,-0.17841406 0.253418,-0.14941406 h 0.00586 c 0.108,0.03 0.1730196,0.14295313 0.1450196,0.25195313 -0.018448,0.0729531 -0.3994383,1.51498074 -1.4838868,2.08154304 6.49e-4,0.0675 -0.00716,0.1354045 -0.026367,0.2036133 -0.091969,0.3265312 -0.3936317,0.5389612 -0.7177743,0.5317382 z M 3.1869305,2.4921791 C 2.8897771,2.493573 2.6107587,2.312101 2.5013837,2.0175697 c -0.00141,-0.0038 -0.00305,-0.00791 -0.00439,-0.011719 -1.4299479,0.3561043 -2.55682306,-1.62180223 -2.60595707,-1.70947273 -0.056,-0.1 -0.0204336,-0.22671485 0.08056641,-0.28271485 0.009,-0.006 0.01783203,-0.00918359 0.0278320287,-0.0131835925 C 0.09343047,-0.03452017 0.20284844,0.00276499 0.25284844,0.09276499 0.2637307,0.11156161 1.3191526,1.9616314 2.479411,1.5781166 2.5376957,1.3564799 2.6981403,1.1658439 2.929118,1.0800697 c 0.377,-0.14 0.7975001,0.052199 0.9375001,0.4291992 0.14,0.377 -0.052199,0.7960352 -0.4291993,0.9360352 -0.082469,0.030625 -0.1672853,0.046485 -0.2504883,0.046875 z m -6.732422,-5.1811525 c -0.00699,-3.972e-4 -0.013445,-3.398e-4 -0.020508,-0.00146 h -0.00146 c -0.445616,-0.073435 -1.1920311,-0.3850702 -1.3330078,-1.0708008 -0.3260629,-0.1147677 -0.5344641,-0.4496215 -0.4775391,-0.8027344 0.064,-0.398 0.437961,-0.6689805 0.834961,-0.6049805 0.398,0.064 0.6689805,0.437961 0.6049805,0.834961 -0.046685,0.2895936 -0.2592221,0.5115568 -0.5244141,0.5859375 0.1913175,0.5111359 0.9254201,0.6402699 0.9638672,0.6459961 0.113,0.019 0.1893867,0.1257695 0.1713867,0.2387695 -0.017812,0.1059375 -0.1134375,0.1802747 -0.2182617,0.1743164 z m 3.61083994,-0.2460937 c -0.07996875,-0.00764 -0.15246094,-0.061805 -0.17871094,-0.1435547 -0.035,-0.109 0.02576563,-0.226207 0.13476563,-0.262207 0.01842719,-0.00614 0.32253446,-0.1096348 0.52734376,-0.4423829 -0.20343033,-0.1294114 -0.33837892,-0.3565023 -0.33837892,-0.6152344 0,-0.402 0.32602737,-0.7294922 0.72802737,-0.7294922 0.40299996,0 0.72802736,0.3274922 0.72802736,0.7294922 0,0.3929494 -0.3112458,0.7137596 -0.70166018,0.7280274 -0.28170718,0.5514435 -0.78985355,0.7176412 -0.81884767,0.7265625 -0.02725,0.0085 -0.05391016,0.011336 -0.08056641,0.00879 z"
                      transform="matrix(1.3333333,0,0,-1.3333333,2052.3699,179.4876)"
                    />
                  </g>
                </svg>
<svg x="0" y="158" id="svg13" width="158" height="158" viewBox="0 0 39.590698 39.619064">
                  <defs id="defs1">
                    <clipPath clipPathUnits="userSpaceOnUse" id="clipPath797">
                      <path
                        d="m 720.119,147.657 c -2.784,0 -5.058,-2.175 -5.22,-4.918 v 0 c -0.162,2.743 -2.436,4.918 -5.22,4.918 v 0 h -7.225 c -1.263,0 -2.286,-1.024 -2.286,-2.285 v 0 -7.226 c 0,-2.889 2.341,-5.23 5.23,-5.23 v 0 c -2.889,0 -5.23,-2.342 -5.23,-5.23 v 0 -7.226 c 0,-1.262 1.023,-2.286 2.286,-2.286 v 0 h 7.225 c 2.784,0 5.058,2.175 5.22,4.917 v 0 c 0.162,-2.742 2.436,-4.917 5.22,-4.917 v 0 h 7.226 c 1.262,0 2.285,1.024 2.285,2.286 v 0 7.226 c 0,2.888 -2.341,5.23 -5.23,5.23 v 0 c 2.889,0 5.23,2.341 5.23,5.23 v 0 7.226 c 0,1.261 -1.023,2.285 -2.285,2.285 v 0 z m -7.495,-14.741 c 1.194,0 2.173,0.917 2.275,2.085 v 0 c 0.101,-1.168 1.081,-2.085 2.275,-2.085 v 0 c -1.194,0 -2.174,-0.917 -2.275,-2.086 v 0 c -0.102,1.169 -1.081,2.086 -2.275,2.086"
                        transform="translate(-720.11894,-117.19181)"
                        id="path797"
                      />
                    </clipPath>
                    <clipPath clipPathUnits="userSpaceOnUse" id="clipPath857">
                      <path d="M 0,269.291 H 807.874 V 0 H 0 Z" transform="translate(-714.66802,-131.0613)" id="path857" />
                    </clipPath>
                    <clipPath clipPathUnits="userSpaceOnUse" id="clipPath859">
                      <path d="M 0,269.291 H 807.874 V 0 H 0 Z" transform="translate(-716.40344,-134.6753)" id="path859" />
                    </clipPath>
                  </defs>
                  <g id="g2774" transform="translate(-2030.4147,-161.87028)">
                    <path id="path796" d="M 0,0 C -2.178,0 -4.11,1.129 -5.22,2.845 -6.33,1.129 -8.262,0 -10.44,0 h -7.225 c -1.803,0 -3.269,1.466 -3.269,3.268 v 7.226 c 0,2.193 1.143,4.124 2.863,5.23 -1.72,1.106 -2.863,3.037 -2.863,5.23 v 7.225 c 0,1.802 1.466,3.269 3.269,3.269 h 7.225 c 2.178,0 4.11,-1.129 5.22,-2.846 1.11,1.717 3.042,2.846 5.22,2.846 h 7.226 c 1.802,0 3.268,-1.467 3.268,-3.269 v -7.225 c 0,-2.193 -1.142,-4.124 -2.863,-5.23 1.721,-1.106 2.863,-3.037 2.863,-5.23 V 3.268 C 10.494,1.466 9.028,0 7.226,0 Z" style="display: inline; fill: #4a4331; fill-opacity: 1; fill-rule: nonzero; stroke: none" transform="matrix(1.3333333,0,0,-1.3333333,2057.3239,202.79893)" clip-path="url(#clipPath797)" />
                    <path
                      id="path856"
                      d="M 0,0 C -0.102,1.168 -1.081,2.085 -2.275,2.085 -1.081,2.085 -0.102,3.002 0,4.171 0.102,3.002 1.081,2.085 2.275,2.085 1.081,2.085 0.102,1.168 0,0 m 14.731,7.315 v 7.226 c 0,1.262 -1.023,2.286 -2.285,2.286 H 5.22 c -2.784,0 -5.058,-2.175 -5.22,-4.918 -0.162,2.743 -2.436,4.918 -5.22,4.918 h -7.226 c -1.262,0 -2.285,-1.024 -2.285,-2.286 V 7.315 c 0,-2.888 2.341,-5.23 5.23,-5.23 -2.889,0 -5.23,-2.341 -5.23,-5.23 v -7.225 c 0,-1.263 1.023,-2.286 2.285,-2.286 h 7.226 c 2.784,0 5.058,2.175 5.22,4.917 0.162,-2.742 2.436,-4.917 5.22,-4.917 h 7.226 c 1.262,0 2.285,1.023 2.285,2.286 v 7.225 c 0,2.889 -2.341,5.23 -5.23,5.23 2.889,0 5.23,2.342 5.23,5.23"
                      style="display: inline; fill: #73d0ce; fill-opacity: 1; fill-rule: nonzero; stroke: none"
                      transform="matrix(1.3333333,0,0,-1.3333333,2050.056,184.30627)"
                      clip-path="url(#clipPath857)"
                    />
                    <path
                      id="path858"
                      clip-path="url(#clipPath859)"
                      style="fill: #2e582e; fill-opacity: 1; fill-rule: nonzero; stroke: none"
                      d="m -5.4732259,3.0927651 c -0.060026,-0.00134 -0.1197071,-0.010801 -0.1801758,-0.027832 -0.388,-0.108 -0.6143711,-0.5109492 -0.5053711,-0.8979492 0.109,-0.387 0.5099492,-0.6129063 0.8979492,-0.5039063 0.170439,0.047564 0.3097123,0.153139 0.4028321,0.2885743 0.8747731,-0.512133 1.2051872,-1.7634304 1.2084961,-1.77832041 0.029,-0.112 0.142418,-0.17841406 0.253418,-0.14941406 h 0.00586 c 0.108,0.03 0.1730196,0.14295313 0.1450196,0.25195313 -0.018448,0.0729531 -0.3994383,1.51498074 -1.4838868,2.08154304 6.49e-4,0.0675 -0.00716,0.1354045 -0.026367,0.2036133 -0.091969,0.3265312 -0.3936317,0.5389612 -0.7177743,0.5317382 z M 3.1869305,2.4921791 C 2.8897771,2.493573 2.6107587,2.312101 2.5013837,2.0175697 c -0.00141,-0.0038 -0.00305,-0.00791 -0.00439,-0.011719 -1.4299479,0.3561043 -2.55682306,-1.62180223 -2.60595707,-1.70947273 -0.056,-0.1 -0.0204336,-0.22671485 0.08056641,-0.28271485 0.009,-0.006 0.01783203,-0.00918359 0.0278320287,-0.0131835925 C 0.09343047,-0.03452017 0.20284844,0.00276499 0.25284844,0.09276499 0.2637307,0.11156161 1.3191526,1.9616314 2.479411,1.5781166 2.5376957,1.3564799 2.6981403,1.1658439 2.929118,1.0800697 c 0.377,-0.14 0.7975001,0.052199 0.9375001,0.4291992 0.14,0.377 -0.052199,0.7960352 -0.4291993,0.9360352 -0.082469,0.030625 -0.1672853,0.046485 -0.2504883,0.046875 z m -6.732422,-5.1811525 c -0.00699,-3.972e-4 -0.013445,-3.398e-4 -0.020508,-0.00146 h -0.00146 c -0.445616,-0.073435 -1.1920311,-0.3850702 -1.3330078,-1.0708008 -0.3260629,-0.1147677 -0.5344641,-0.4496215 -0.4775391,-0.8027344 0.064,-0.398 0.437961,-0.6689805 0.834961,-0.6049805 0.398,0.064 0.6689805,0.437961 0.6049805,0.834961 -0.046685,0.2895936 -0.2592221,0.5115568 -0.5244141,0.5859375 0.1913175,0.5111359 0.9254201,0.6402699 0.9638672,0.6459961 0.113,0.019 0.1893867,0.1257695 0.1713867,0.2387695 -0.017812,0.1059375 -0.1134375,0.1802747 -0.2182617,0.1743164 z m 3.61083994,-0.2460937 c -0.07996875,-0.00764 -0.15246094,-0.061805 -0.17871094,-0.1435547 -0.035,-0.109 0.02576563,-0.226207 0.13476563,-0.262207 0.01842719,-0.00614 0.32253446,-0.1096348 0.52734376,-0.4423829 -0.20343033,-0.1294114 -0.33837892,-0.3565023 -0.33837892,-0.6152344 0,-0.402 0.32602737,-0.7294922 0.72802737,-0.7294922 0.40299996,0 0.72802736,0.3274922 0.72802736,0.7294922 0,0.3929494 -0.3112458,0.7137596 -0.70166018,0.7280274 -0.28170718,0.5514435 -0.78985355,0.7176412 -0.81884767,0.7265625 -0.02725,0.0085 -0.05391016,0.011336 -0.08056641,0.00879 z"
                      transform="matrix(1.3333333,0,0,-1.3333333,2052.3699,179.4876)"
                    />
                  </g>
                </svg>
<svg x="158" y="158" id="svg14" width="158" height="158" viewBox="0 0 39.59082 39.617874">
                  <defs id="defs1">
                    <clipPath clipPathUnits="userSpaceOnUse" id="clipPath783">
                      <path d="M 0,269.291 H 807.874 V 0 H 0 Z" transform="translate(-714.91019,-101.34761)" id="path783" />
                    </clipPath>
                    <clipPath clipPathUnits="userSpaceOnUse" id="clipPath847">
                      <path
                        d="m 716.954,118.405 c -1.194,0 -2.173,-0.916 -2.275,-2.085 v 0 c -0.101,1.169 -1.081,2.085 -2.275,2.085 v 0 h -10.171 c -1.262,0 -2.285,-1.023 -2.285,-2.285 v 0 -10.17 c 0,-1.263 1.023,-2.286 2.285,-2.286 v 0 c -1.262,0 -2.285,-1.023 -2.285,-2.285 v 0 -10.171 c 0,-1.262 1.023,-2.285 2.285,-2.285 v 0 h 10.171 c 1.194,0 2.174,0.917 2.275,2.085 v 0 c 0.102,-1.168 1.081,-2.085 2.275,-2.085 v 0 h 10.17 c 1.263,0 2.286,1.023 2.286,2.285 v 0 10.171 c 0,1.262 -1.023,2.285 -2.286,2.285 v 0 c 1.263,0 2.286,1.023 2.286,2.286 v 0 10.17 c 0,1.262 -1.023,2.285 -2.286,2.285 v 0 z m -4.55,-14.741 c 1.194,0 2.174,0.917 2.275,2.085 v 0 c 0.102,-1.168 1.081,-2.085 2.275,-2.085 v 0 c -1.194,0 -2.173,-0.917 -2.275,-2.085 v 0 c -0.101,1.168 -1.081,2.085 -2.275,2.085"
                        transform="translate(-714.67912,-101.5787)"
                        id="path847"
                      />
                    </clipPath>
                    <clipPath clipPathUnits="userSpaceOnUse" id="clipPath849">
                      <path
                        d="m 716.954,118.405 c -1.194,0 -2.173,-0.916 -2.275,-2.085 v 0 c -0.101,1.169 -1.081,2.085 -2.275,2.085 v 0 h -10.171 c -1.262,0 -2.285,-1.023 -2.285,-2.285 v 0 -10.17 c 0,-1.263 1.023,-2.286 2.285,-2.286 v 0 c -1.262,0 -2.285,-1.023 -2.285,-2.285 v 0 -10.171 c 0,-1.262 1.023,-2.285 2.285,-2.285 v 0 h 10.171 c 1.194,0 2.174,0.917 2.275,2.085 v 0 c 0.102,-1.168 1.081,-2.085 2.275,-2.085 v 0 h 10.17 c 1.263,0 2.286,1.023 2.286,2.285 v 0 10.171 c 0,1.262 -1.023,2.285 -2.286,2.285 v 0 c 1.263,0 2.286,1.023 2.286,2.286 v 0 10.17 c 0,1.262 -1.023,2.285 -2.286,2.285 v 0 z m -4.55,-14.741 c 1.194,0 2.174,0.917 2.275,2.085 v 0 c 0.102,-1.168 1.081,-2.085 2.275,-2.085 v 0 c -1.194,0 -2.173,-0.917 -2.275,-2.085 v 0 c -0.101,1.168 -1.081,2.085 -2.275,2.085"
                        transform="translate(-718.14899,-107.8247)"
                        id="path849"
                      />
                    </clipPath>
                  </defs>
                  <g id="g2775" transform="translate(-2030.4294,-201.18133)">
                    <path
                      id="path782"
                      d="M 0,0 C -0.102,1.168 -1.081,2.085 -2.275,2.085 -1.081,2.085 -0.102,3.002 0,4.171 0.102,3.002 1.081,2.085 2.275,2.085 1.081,2.085 0.102,1.168 0,0 m 14.731,4.371 v 10.17 c 0,1.262 -1.023,2.286 -2.285,2.286 H 2.275 C 1.081,16.827 0.102,15.91 0,14.741 c -0.102,1.169 -1.081,2.086 -2.275,2.086 h -10.171 c -1.262,0 -2.285,-1.024 -2.285,-2.286 V 4.371 c 0,-1.262 1.023,-2.286 2.285,-2.286 -1.262,0 -2.285,-1.023 -2.285,-2.285 v -10.17 c 0,-1.263 1.023,-2.286 2.285,-2.286 h 10.171 c 1.194,0 2.173,0.917 2.275,2.085 0.102,-1.168 1.081,-2.085 2.275,-2.085 h 10.171 c 1.262,0 2.285,1.023 2.285,2.286 V -0.2 c 0,1.262 -1.023,2.285 -2.285,2.285 1.262,0 2.285,1.024 2.285,2.286"
                      style="fill: #4a4331; fill-opacity: 1; fill-rule: nonzero; stroke: none"
                      transform="matrix(1.3333333,0,0,-1.3333333,2050.3789,223.92453)"
                      clip-path="url(#clipPath783)"
                    />
                    <path
                      id="path846"
                      d="M 0,0 C -0.102,1.168 -1.081,2.085 -2.275,2.085 -1.081,2.085 -0.102,3.002 0,4.171 0.102,3.002 1.081,2.085 2.275,2.085 1.081,2.085 0.102,1.168 0,0 m 14.731,4.371 v 10.17 c 0,1.262 -1.023,2.286 -2.285,2.286 H 2.275 C 1.081,16.827 0.102,15.91 0,14.741 c -0.102,1.169 -1.081,2.086 -2.275,2.086 h -10.171 c -1.262,0 -2.285,-1.024 -2.285,-2.286 V 4.371 c 0,-1.262 1.023,-2.286 2.285,-2.286 -1.262,0 -2.285,-1.023 -2.285,-2.285 v -10.17 c 0,-1.263 1.023,-2.286 2.285,-2.286 h 10.171 c 1.194,0 2.173,0.917 2.275,2.085 0.102,-1.168 1.081,-2.085 2.275,-2.085 h 10.171 c 1.262,0 2.285,1.023 2.285,2.286 V -0.2 c 0,1.262 -1.023,2.285 -2.285,2.285 1.262,0 2.285,1.024 2.285,2.286"
                      style="fill: #f14d30; fill-opacity: 1; fill-rule: nonzero; stroke: none"
                      transform="matrix(1.3333333,0,0,-1.3333333,2050.0708,223.6164)"
                      clip-path="url(#clipPath847)"
                    />
                    <path
                      id="path848"
                      clip-path="url(#clipPath849)"
                      style="fill: #2e582e; fill-opacity: 1; fill-rule: nonzero; stroke: none"
                      d="m -1.3550063,1.3554744 c -0.748,0 -1.3549805,-0.60698051 -1.3549805,-1.35498050999 0,-0.74800000001 0.6069805,-1.35498049001 1.3549805,-1.35498049001 0.74800002,0 1.354980518749,0.60698049 1.354980518749,1.35498049001 C -2.5781251e-5,0.74849389 -0.60700628,1.3554744 -1.3550063,1.3554744 Z M -6.786647,-0.41112721 c -0.748,0 -1.3549805,-0.60698049 -1.3549805,-1.35498049 0,-0.748 0.6069805,-1.3549805 1.3549805,-1.3549805 0.748,0 1.3549805,0.6069805 1.3549805,1.3549805 0,0.748 -0.6069805,1.35498049 -1.3549805,1.35498049 z M 0.06149766,-4.9272406 c -0.748,0 -1.35498046,-0.6069805 -1.35498046,-1.3549805 0,-0.748 0.60698046,-1.3549805 1.35498046,-1.3549805 0.748,0 1.35498054,0.6069805 1.35498054,1.3549805 0,0.748 -0.60698054,1.3549805 -1.35498054,1.3549805 z M -6.2534439,-5.5497992 c -0.748,0 -1.3549805,-0.6069805 -1.3549805,-1.3549805 0,-0.748 0.6069805,-1.3549805 1.3549805,-1.3549805 0.748,0 1.3549805,0.6069805 1.3549805,1.3549805 0,0.748 -0.6069805,1.3549805 -1.3549805,1.3549805 z"
                      transform="matrix(1.3333333,0,0,-1.3333333,2054.6973,215.2884)"
                    />
                  </g>
                </svg>
</svg>
